<mxfile host="app.diagrams.net" modified="2023-01-16T14:55:10.509Z" agent="5.0 (Windows NT 10.0; Win64; x64) AppleWebKit/537.36 (KHTML, like Gecko) Chrome/109.0.0.0 Safari/537.36" etag="v-EREXcNEvIO8hG7SJsb" version="20.8.5" type="github">
  <diagram name="Page-1" id="fc2ac565-0d4e-3f0d-88b0-a54af1634ed7">
    <mxGraphModel dx="1195" dy="657" grid="1" gridSize="10" guides="1" tooltips="1" connect="0" arrows="1" fold="1" page="1" pageScale="1.5" pageWidth="4681" pageHeight="3300" background="none" math="0" shadow="0">
      <root>
        <mxCell id="0" style=";html=1;" />
        <mxCell id="1" style=";html=1;" parent="0" />
        <mxCell id="75" value="Tâche 1 : Définition du budget" style="align=left;strokeColor=#CCCCCC;html=1;" parent="1" vertex="1">
          <mxGeometry x="297.0000000000003" y="149.99999999999977" width="319.9999999999997" height="20.000000000000014" as="geometry" />
        </mxCell>
        <mxCell id="80" value="Tâche 2 : Élaboration du cahier des charges" style="align=left;strokeColor=#CCCCCC;html=1;" parent="1" vertex="1">
          <mxGeometry x="297" y="170.00000000000023" width="320" height="20" as="geometry" />
        </mxCell>
        <mxCell id="85" value="Tâche 3 : Réalisation des maquettes du site" style="align=left;strokeColor=#CCCCCC;html=1;" parent="1" vertex="1">
          <mxGeometry x="296.9999999999999" y="190.00000000000023" width="320.0000000000001" height="20" as="geometry" />
        </mxCell>
        <mxCell id="90" value="Tâche 4 : Développement des fonctions" style="align=left;strokeColor=#CCCCCC;html=1;" parent="1" vertex="1">
          <mxGeometry x="296.9999999999999" y="210.00000000000045" width="320.0000000000001" height="20" as="geometry" />
        </mxCell>
        <mxCell id="95" value="Tâche 5 : Réalisation de l&#39;intégration graphique" style="align=left;strokeColor=#CCCCCC;html=1;" parent="1" vertex="1">
          <mxGeometry x="297.0000000000006" y="230.00000000000068" width="319.9999999999994" height="20" as="geometry" />
        </mxCell>
        <mxCell id="100" value="Tâche 6 : Test et Validation du Site" style="align=left;strokeColor=#CCCCCC;html=1;" parent="1" vertex="1">
          <mxGeometry x="297.0000000000006" y="250.00000000000057" width="319.9999999999994" height="20" as="geometry" />
        </mxCell>
        <mxCell id="2" value="Nom de la Tâche" style="strokeWidth=1;fontStyle=0;html=1;" parent="1" vertex="1">
          <mxGeometry x="297" y="130" width="320" height="20" as="geometry" />
        </mxCell>
        <mxCell id="67c90442a009f359-289" value="Tâche 7" style="align=left;strokeColor=#CCCCCC;html=1;" parent="1" vertex="1">
          <mxGeometry x="297.0000000000006" y="270.00000000000057" width="319.9999999999994" height="20" as="geometry" />
        </mxCell>
        <mxCell id="67c90442a009f359-290" value="Tâche 8" style="align=left;strokeColor=#CCCCCC;html=1;" parent="1" vertex="1">
          <mxGeometry x="297.0000000000006" y="290.00000000000057" width="319.9999999999994" height="20" as="geometry" />
        </mxCell>
        <mxCell id="67c90442a009f359-291" value="" style="align=left;strokeColor=#CCCCCC;html=1;" parent="1" vertex="1">
          <mxGeometry x="617" y="150" width="840" height="20" as="geometry" />
        </mxCell>
        <mxCell id="4" value="Janvier" style="strokeWidth=1;fontStyle=0;html=1;" parent="1" vertex="1">
          <mxGeometry x="617" y="130" width="70" height="20" as="geometry" />
        </mxCell>
        <mxCell id="67c90442a009f359-278" value="Février" style="strokeWidth=1;fontStyle=0;html=1;" parent="1" vertex="1">
          <mxGeometry x="687" y="130" width="70" height="20" as="geometry" />
        </mxCell>
        <mxCell id="67c90442a009f359-279" value="Mars" style="strokeWidth=1;fontStyle=0;html=1;" parent="1" vertex="1">
          <mxGeometry x="757" y="130" width="70" height="20" as="geometry" />
        </mxCell>
        <mxCell id="67c90442a009f359-280" value="Avril" style="strokeWidth=1;fontStyle=0;html=1;" parent="1" vertex="1">
          <mxGeometry x="827" y="130" width="70" height="20" as="geometry" />
        </mxCell>
        <mxCell id="67c90442a009f359-281" value="Mai" style="strokeWidth=1;fontStyle=0;html=1;" parent="1" vertex="1">
          <mxGeometry x="897" y="130" width="70" height="20" as="geometry" />
        </mxCell>
        <mxCell id="67c90442a009f359-282" value="Juin" style="strokeWidth=1;fontStyle=0;html=1;" parent="1" vertex="1">
          <mxGeometry x="967" y="130" width="70" height="20" as="geometry" />
        </mxCell>
        <mxCell id="67c90442a009f359-283" value="Juillet" style="strokeWidth=1;fontStyle=0;html=1;" parent="1" vertex="1">
          <mxGeometry x="1037" y="130" width="70" height="20" as="geometry" />
        </mxCell>
        <mxCell id="67c90442a009f359-284" value="Août" style="strokeWidth=1;fontStyle=0;html=1;" parent="1" vertex="1">
          <mxGeometry x="1107" y="130" width="70" height="20" as="geometry" />
        </mxCell>
        <mxCell id="67c90442a009f359-285" value="Septembre" style="strokeWidth=1;fontStyle=0;html=1;" parent="1" vertex="1">
          <mxGeometry x="1177" y="130" width="70" height="20" as="geometry" />
        </mxCell>
        <mxCell id="67c90442a009f359-286" value="Octobre" style="strokeWidth=1;fontStyle=0;html=1;" parent="1" vertex="1">
          <mxGeometry x="1247" y="130" width="70" height="20" as="geometry" />
        </mxCell>
        <mxCell id="67c90442a009f359-287" value="Novembre" style="strokeWidth=1;fontStyle=0;html=1;" parent="1" vertex="1">
          <mxGeometry x="1317" y="130" width="70" height="20" as="geometry" />
        </mxCell>
        <mxCell id="67c90442a009f359-288" value="Décembre" style="strokeWidth=1;fontStyle=0;html=1;" parent="1" vertex="1">
          <mxGeometry x="1387" y="130" width="70" height="20" as="geometry" />
        </mxCell>
        <mxCell id="67c90442a009f359-292" value="" style="align=left;strokeColor=#CCCCCC;html=1;" parent="1" vertex="1">
          <mxGeometry x="617" y="170" width="840" height="20" as="geometry" />
        </mxCell>
        <mxCell id="67c90442a009f359-293" value="" style="align=left;strokeColor=#CCCCCC;html=1;" parent="1" vertex="1">
          <mxGeometry x="617" y="190" width="840" height="20" as="geometry" />
        </mxCell>
        <mxCell id="67c90442a009f359-294" value="" style="align=left;strokeColor=#CCCCCC;html=1;" parent="1" vertex="1">
          <mxGeometry x="617" y="210" width="840" height="20" as="geometry" />
        </mxCell>
        <mxCell id="67c90442a009f359-295" value="" style="align=left;strokeColor=#CCCCCC;html=1;" parent="1" vertex="1">
          <mxGeometry x="617" y="230" width="840" height="20" as="geometry" />
        </mxCell>
        <mxCell id="67c90442a009f359-296" value="" style="align=left;strokeColor=#CCCCCC;html=1;" parent="1" vertex="1">
          <mxGeometry x="617" y="250" width="840" height="20" as="geometry" />
        </mxCell>
        <mxCell id="67c90442a009f359-297" value="" style="align=left;strokeColor=#CCCCCC;html=1;" parent="1" vertex="1">
          <mxGeometry x="617" y="270" width="840" height="20" as="geometry" />
        </mxCell>
        <mxCell id="67c90442a009f359-298" value="" style="align=left;strokeColor=#CCCCCC;html=1;" parent="1" vertex="1">
          <mxGeometry x="617" y="290" width="840" height="20" as="geometry" />
        </mxCell>
        <mxCell id="67c90442a009f359-299" value="" style="whiteSpace=wrap;html=1;strokeWidth=2;fillColor=#CCCCCC;gradientColor=none;fontSize=14;align=center;strokeColor=#999999;" parent="1" vertex="1">
          <mxGeometry x="617" y="150" width="113" height="20" as="geometry" />
        </mxCell>
        <mxCell id="67c90442a009f359-300" value="" style="whiteSpace=wrap;html=1;strokeWidth=2;fillColor=#CCCCCC;gradientColor=none;fontSize=14;align=center;strokeColor=#999999;" parent="1" vertex="1">
          <mxGeometry x="730" y="170" width="300" height="20" as="geometry" />
        </mxCell>
        <mxCell id="67c90442a009f359-301" value="" style="whiteSpace=wrap;html=1;strokeWidth=2;fillColor=#CCCCCC;gradientColor=none;fontSize=14;align=center;strokeColor=#999999;" parent="1" vertex="1">
          <mxGeometry x="1030" y="190" width="220" height="20" as="geometry" />
        </mxCell>
        <mxCell id="67c90442a009f359-302" value="" style="whiteSpace=wrap;html=1;strokeWidth=2;fillColor=#CCCCCC;gradientColor=none;fontSize=14;align=center;strokeColor=#999999;" parent="1" vertex="1">
          <mxGeometry x="1250" y="210" width="130" height="20" as="geometry" />
        </mxCell>
        <mxCell id="67c90442a009f359-303" value="" style="whiteSpace=wrap;html=1;strokeWidth=2;fillColor=#CCCCCC;gradientColor=none;fontSize=14;align=center;strokeColor=#999999;" parent="1" vertex="1">
          <mxGeometry x="1107" y="230" width="140" height="20" as="geometry" />
        </mxCell>
        <mxCell id="67c90442a009f359-304" value="" style="whiteSpace=wrap;html=1;strokeWidth=2;fillColor=#CCCCCC;gradientColor=none;fontSize=14;align=center;strokeColor=#999999;" parent="1" vertex="1">
          <mxGeometry x="1107" y="250" width="210" height="20" as="geometry" />
        </mxCell>
        <mxCell id="67c90442a009f359-305" value="" style="whiteSpace=wrap;html=1;strokeWidth=2;fillColor=#CCCCCC;gradientColor=none;fontSize=14;align=center;strokeColor=#999999;" parent="1" vertex="1">
          <mxGeometry x="1247" y="270" width="140" height="20" as="geometry" />
        </mxCell>
        <mxCell id="67c90442a009f359-306" value="" style="whiteSpace=wrap;html=1;strokeWidth=2;fillColor=#CCCCCC;gradientColor=none;fontSize=14;align=center;strokeColor=#999999;" parent="1" vertex="1">
          <mxGeometry x="1387" y="290" width="70" height="20" as="geometry" />
        </mxCell>
        <mxCell id="VN1uP1C5PUMfHr19Xt-i-100" value="Tâche 1 : Définition du budget" style="align=left;strokeColor=#CCCCCC;html=1;" vertex="1" parent="1">
          <mxGeometry x="297.0000000000003" y="389.9999999999998" width="319.9999999999997" height="20.000000000000014" as="geometry" />
        </mxCell>
        <mxCell id="VN1uP1C5PUMfHr19Xt-i-101" value="Tâche 2 : Élaboration du cahier des charges" style="align=left;strokeColor=#CCCCCC;html=1;" vertex="1" parent="1">
          <mxGeometry x="297" y="410.0000000000002" width="320" height="20" as="geometry" />
        </mxCell>
        <mxCell id="VN1uP1C5PUMfHr19Xt-i-102" value="Tâche 3 : Réalisation des maquettes du site" style="align=left;strokeColor=#CCCCCC;html=1;" vertex="1" parent="1">
          <mxGeometry x="296.9999999999999" y="430.0000000000002" width="320.0000000000001" height="20" as="geometry" />
        </mxCell>
        <mxCell id="VN1uP1C5PUMfHr19Xt-i-103" value="Tâche 4 : Développement des fonctions" style="align=left;strokeColor=#CCCCCC;html=1;" vertex="1" parent="1">
          <mxGeometry x="296.9999999999999" y="450.00000000000045" width="320.0000000000001" height="20" as="geometry" />
        </mxCell>
        <mxCell id="VN1uP1C5PUMfHr19Xt-i-104" value="Tâche 5 : Réalisation de l&#39;intégration graphique" style="align=left;strokeColor=#CCCCCC;html=1;" vertex="1" parent="1">
          <mxGeometry x="297.0000000000006" y="470.0000000000007" width="319.9999999999994" height="20" as="geometry" />
        </mxCell>
        <mxCell id="VN1uP1C5PUMfHr19Xt-i-105" value="Tâche 6 : Test et Validation du Site" style="align=left;strokeColor=#CCCCCC;html=1;" vertex="1" parent="1">
          <mxGeometry x="297.0000000000006" y="490.00000000000057" width="319.9999999999994" height="20" as="geometry" />
        </mxCell>
        <mxCell id="VN1uP1C5PUMfHr19Xt-i-106" value="Nom de la Tâche" style="strokeWidth=1;fontStyle=0;html=1;" vertex="1" parent="1">
          <mxGeometry x="297" y="370" width="320" height="20" as="geometry" />
        </mxCell>
        <mxCell id="VN1uP1C5PUMfHr19Xt-i-107" value="Tâche 7" style="align=left;strokeColor=#CCCCCC;html=1;" vertex="1" parent="1">
          <mxGeometry x="297.0000000000006" y="510.00000000000057" width="319.9999999999994" height="20" as="geometry" />
        </mxCell>
        <mxCell id="VN1uP1C5PUMfHr19Xt-i-108" value="Tâche 8" style="align=left;strokeColor=#CCCCCC;html=1;" vertex="1" parent="1">
          <mxGeometry x="297.0000000000006" y="530.0000000000006" width="319.9999999999994" height="20" as="geometry" />
        </mxCell>
        <mxCell id="VN1uP1C5PUMfHr19Xt-i-109" value="" style="align=left;strokeColor=#CCCCCC;html=1;" vertex="1" parent="1">
          <mxGeometry x="617" y="390" width="840" height="20" as="geometry" />
        </mxCell>
        <mxCell id="VN1uP1C5PUMfHr19Xt-i-110" value="1" style="strokeWidth=1;fontStyle=0;html=1;" vertex="1" parent="1">
          <mxGeometry x="617" y="370" width="70" height="20" as="geometry" />
        </mxCell>
        <mxCell id="VN1uP1C5PUMfHr19Xt-i-111" value="2" style="strokeWidth=1;fontStyle=0;html=1;" vertex="1" parent="1">
          <mxGeometry x="687" y="370" width="70" height="20" as="geometry" />
        </mxCell>
        <mxCell id="VN1uP1C5PUMfHr19Xt-i-112" value="3" style="strokeWidth=1;fontStyle=0;html=1;" vertex="1" parent="1">
          <mxGeometry x="757" y="370" width="70" height="20" as="geometry" />
        </mxCell>
        <mxCell id="VN1uP1C5PUMfHr19Xt-i-113" value="4" style="strokeWidth=1;fontStyle=0;html=1;" vertex="1" parent="1">
          <mxGeometry x="827" y="370" width="70" height="20" as="geometry" />
        </mxCell>
        <mxCell id="VN1uP1C5PUMfHr19Xt-i-114" value="5" style="strokeWidth=1;fontStyle=0;html=1;" vertex="1" parent="1">
          <mxGeometry x="897" y="370" width="70" height="20" as="geometry" />
        </mxCell>
        <mxCell id="VN1uP1C5PUMfHr19Xt-i-115" value="6" style="strokeWidth=1;fontStyle=0;html=1;" vertex="1" parent="1">
          <mxGeometry x="967" y="370" width="70" height="20" as="geometry" />
        </mxCell>
        <mxCell id="VN1uP1C5PUMfHr19Xt-i-116" value="7" style="strokeWidth=1;fontStyle=0;html=1;" vertex="1" parent="1">
          <mxGeometry x="1037" y="370" width="70" height="20" as="geometry" />
        </mxCell>
        <mxCell id="VN1uP1C5PUMfHr19Xt-i-117" value="8" style="strokeWidth=1;fontStyle=0;html=1;" vertex="1" parent="1">
          <mxGeometry x="1107" y="370" width="70" height="20" as="geometry" />
        </mxCell>
        <mxCell id="VN1uP1C5PUMfHr19Xt-i-118" value="9" style="strokeWidth=1;fontStyle=0;html=1;" vertex="1" parent="1">
          <mxGeometry x="1177" y="370" width="70" height="20" as="geometry" />
        </mxCell>
        <mxCell id="VN1uP1C5PUMfHr19Xt-i-119" value="10" style="strokeWidth=1;fontStyle=0;html=1;" vertex="1" parent="1">
          <mxGeometry x="1247" y="370" width="70" height="20" as="geometry" />
        </mxCell>
        <mxCell id="VN1uP1C5PUMfHr19Xt-i-120" value="11" style="strokeWidth=1;fontStyle=0;html=1;" vertex="1" parent="1">
          <mxGeometry x="1317" y="370" width="70" height="20" as="geometry" />
        </mxCell>
        <mxCell id="VN1uP1C5PUMfHr19Xt-i-121" value="12" style="strokeWidth=1;fontStyle=0;html=1;" vertex="1" parent="1">
          <mxGeometry x="1387" y="370" width="70" height="20" as="geometry" />
        </mxCell>
        <mxCell id="VN1uP1C5PUMfHr19Xt-i-122" value="" style="align=left;strokeColor=#CCCCCC;html=1;" vertex="1" parent="1">
          <mxGeometry x="617" y="410" width="840" height="20" as="geometry" />
        </mxCell>
        <mxCell id="VN1uP1C5PUMfHr19Xt-i-123" value="" style="align=left;strokeColor=#CCCCCC;html=1;" vertex="1" parent="1">
          <mxGeometry x="617" y="430" width="840" height="20" as="geometry" />
        </mxCell>
        <mxCell id="VN1uP1C5PUMfHr19Xt-i-124" value="" style="align=left;strokeColor=#CCCCCC;html=1;" vertex="1" parent="1">
          <mxGeometry x="617" y="450" width="840" height="20" as="geometry" />
        </mxCell>
        <mxCell id="VN1uP1C5PUMfHr19Xt-i-125" value="" style="align=left;strokeColor=#CCCCCC;html=1;" vertex="1" parent="1">
          <mxGeometry x="617" y="470" width="840" height="20" as="geometry" />
        </mxCell>
        <mxCell id="VN1uP1C5PUMfHr19Xt-i-126" value="" style="align=left;strokeColor=#CCCCCC;html=1;" vertex="1" parent="1">
          <mxGeometry x="617" y="490" width="840" height="20" as="geometry" />
        </mxCell>
        <mxCell id="VN1uP1C5PUMfHr19Xt-i-127" value="" style="align=left;strokeColor=#CCCCCC;html=1;" vertex="1" parent="1">
          <mxGeometry x="617" y="510" width="840" height="20" as="geometry" />
        </mxCell>
        <mxCell id="VN1uP1C5PUMfHr19Xt-i-128" value="" style="align=left;strokeColor=#CCCCCC;html=1;" vertex="1" parent="1">
          <mxGeometry x="617" y="530" width="840" height="20" as="geometry" />
        </mxCell>
        <mxCell id="VN1uP1C5PUMfHr19Xt-i-129" value="" style="whiteSpace=wrap;html=1;strokeWidth=2;fillColor=#CCCCCC;gradientColor=none;fontSize=14;align=center;strokeColor=#999999;" vertex="1" parent="1">
          <mxGeometry x="617" y="390" width="113" height="20" as="geometry" />
        </mxCell>
        <mxCell id="VN1uP1C5PUMfHr19Xt-i-130" value="" style="whiteSpace=wrap;html=1;strokeWidth=2;fillColor=#CCCCCC;gradientColor=none;fontSize=14;align=center;strokeColor=#999999;" vertex="1" parent="1">
          <mxGeometry x="730" y="410" width="300" height="20" as="geometry" />
        </mxCell>
        <mxCell id="VN1uP1C5PUMfHr19Xt-i-131" value="" style="whiteSpace=wrap;html=1;strokeWidth=2;fillColor=#CCCCCC;gradientColor=none;fontSize=14;align=center;strokeColor=#999999;" vertex="1" parent="1">
          <mxGeometry x="1030" y="430" width="220" height="20" as="geometry" />
        </mxCell>
        <mxCell id="VN1uP1C5PUMfHr19Xt-i-132" value="" style="whiteSpace=wrap;html=1;strokeWidth=2;fillColor=#CCCCCC;gradientColor=none;fontSize=14;align=center;strokeColor=#999999;" vertex="1" parent="1">
          <mxGeometry x="897" y="450" width="210" height="20" as="geometry" />
        </mxCell>
        <mxCell id="VN1uP1C5PUMfHr19Xt-i-133" value="" style="whiteSpace=wrap;html=1;strokeWidth=2;fillColor=#CCCCCC;gradientColor=none;fontSize=14;align=center;strokeColor=#999999;" vertex="1" parent="1">
          <mxGeometry x="1107" y="470" width="140" height="20" as="geometry" />
        </mxCell>
        <mxCell id="VN1uP1C5PUMfHr19Xt-i-134" value="" style="whiteSpace=wrap;html=1;strokeWidth=2;fillColor=#CCCCCC;gradientColor=none;fontSize=14;align=center;strokeColor=#999999;" vertex="1" parent="1">
          <mxGeometry x="1107" y="490" width="210" height="20" as="geometry" />
        </mxCell>
        <mxCell id="VN1uP1C5PUMfHr19Xt-i-135" value="" style="whiteSpace=wrap;html=1;strokeWidth=2;fillColor=#CCCCCC;gradientColor=none;fontSize=14;align=center;strokeColor=#999999;" vertex="1" parent="1">
          <mxGeometry x="1247" y="510" width="140" height="20" as="geometry" />
        </mxCell>
        <mxCell id="VN1uP1C5PUMfHr19Xt-i-136" value="" style="whiteSpace=wrap;html=1;strokeWidth=2;fillColor=#CCCCCC;gradientColor=none;fontSize=14;align=center;strokeColor=#999999;" vertex="1" parent="1">
          <mxGeometry x="1387" y="530" width="70" height="20" as="geometry" />
        </mxCell>
        <mxCell id="VN1uP1C5PUMfHr19Xt-i-137" value="" style="align=left;strokeColor=#CCCCCC;html=1;" vertex="1" parent="1">
          <mxGeometry x="1457" y="390" width="840" height="20" as="geometry" />
        </mxCell>
        <mxCell id="VN1uP1C5PUMfHr19Xt-i-138" value="13" style="strokeWidth=1;fontStyle=0;html=1;" vertex="1" parent="1">
          <mxGeometry x="1457" y="370" width="70" height="20" as="geometry" />
        </mxCell>
        <mxCell id="VN1uP1C5PUMfHr19Xt-i-139" value="14" style="strokeWidth=1;fontStyle=0;html=1;" vertex="1" parent="1">
          <mxGeometry x="1527" y="370" width="70" height="20" as="geometry" />
        </mxCell>
        <mxCell id="VN1uP1C5PUMfHr19Xt-i-140" value="15" style="strokeWidth=1;fontStyle=0;html=1;" vertex="1" parent="1">
          <mxGeometry x="1597" y="370" width="70" height="20" as="geometry" />
        </mxCell>
        <mxCell id="VN1uP1C5PUMfHr19Xt-i-141" value="16" style="strokeWidth=1;fontStyle=0;html=1;" vertex="1" parent="1">
          <mxGeometry x="1667" y="370" width="70" height="20" as="geometry" />
        </mxCell>
        <mxCell id="VN1uP1C5PUMfHr19Xt-i-142" value="17" style="strokeWidth=1;fontStyle=0;html=1;" vertex="1" parent="1">
          <mxGeometry x="1737" y="370" width="70" height="20" as="geometry" />
        </mxCell>
        <mxCell id="VN1uP1C5PUMfHr19Xt-i-143" value="18" style="strokeWidth=1;fontStyle=0;html=1;" vertex="1" parent="1">
          <mxGeometry x="1807" y="370" width="70" height="20" as="geometry" />
        </mxCell>
        <mxCell id="VN1uP1C5PUMfHr19Xt-i-144" value="19" style="strokeWidth=1;fontStyle=0;html=1;" vertex="1" parent="1">
          <mxGeometry x="1877" y="370" width="70" height="20" as="geometry" />
        </mxCell>
        <mxCell id="VN1uP1C5PUMfHr19Xt-i-145" value="20" style="strokeWidth=1;fontStyle=0;html=1;" vertex="1" parent="1">
          <mxGeometry x="1947" y="370" width="70" height="20" as="geometry" />
        </mxCell>
        <mxCell id="VN1uP1C5PUMfHr19Xt-i-146" value="21" style="strokeWidth=1;fontStyle=0;html=1;" vertex="1" parent="1">
          <mxGeometry x="2017" y="370" width="70" height="20" as="geometry" />
        </mxCell>
        <mxCell id="VN1uP1C5PUMfHr19Xt-i-147" value="22" style="strokeWidth=1;fontStyle=0;html=1;" vertex="1" parent="1">
          <mxGeometry x="2087" y="370" width="70" height="20" as="geometry" />
        </mxCell>
        <mxCell id="VN1uP1C5PUMfHr19Xt-i-148" value="23" style="strokeWidth=1;fontStyle=0;html=1;" vertex="1" parent="1">
          <mxGeometry x="2157" y="370" width="70" height="20" as="geometry" />
        </mxCell>
        <mxCell id="VN1uP1C5PUMfHr19Xt-i-149" value="24" style="strokeWidth=1;fontStyle=0;html=1;" vertex="1" parent="1">
          <mxGeometry x="2227" y="370" width="70" height="20" as="geometry" />
        </mxCell>
        <mxCell id="VN1uP1C5PUMfHr19Xt-i-150" value="" style="align=left;strokeColor=#CCCCCC;html=1;" vertex="1" parent="1">
          <mxGeometry x="1457" y="410" width="840" height="20" as="geometry" />
        </mxCell>
        <mxCell id="VN1uP1C5PUMfHr19Xt-i-151" value="" style="align=left;strokeColor=#CCCCCC;html=1;" vertex="1" parent="1">
          <mxGeometry x="1457" y="430" width="840" height="20" as="geometry" />
        </mxCell>
        <mxCell id="VN1uP1C5PUMfHr19Xt-i-152" value="" style="align=left;strokeColor=#CCCCCC;html=1;" vertex="1" parent="1">
          <mxGeometry x="1457" y="450" width="840" height="20" as="geometry" />
        </mxCell>
        <mxCell id="VN1uP1C5PUMfHr19Xt-i-153" value="" style="align=left;strokeColor=#CCCCCC;html=1;" vertex="1" parent="1">
          <mxGeometry x="1457" y="470" width="840" height="20" as="geometry" />
        </mxCell>
        <mxCell id="VN1uP1C5PUMfHr19Xt-i-154" value="" style="align=left;strokeColor=#CCCCCC;html=1;" vertex="1" parent="1">
          <mxGeometry x="1457" y="490" width="840" height="20" as="geometry" />
        </mxCell>
        <mxCell id="VN1uP1C5PUMfHr19Xt-i-155" value="" style="align=left;strokeColor=#CCCCCC;html=1;" vertex="1" parent="1">
          <mxGeometry x="1457" y="510" width="840" height="20" as="geometry" />
        </mxCell>
        <mxCell id="VN1uP1C5PUMfHr19Xt-i-156" value="" style="align=left;strokeColor=#CCCCCC;html=1;" vertex="1" parent="1">
          <mxGeometry x="1457" y="530" width="840" height="20" as="geometry" />
        </mxCell>
        <mxCell id="VN1uP1C5PUMfHr19Xt-i-157" value="" style="whiteSpace=wrap;html=1;strokeWidth=2;fillColor=#CCCCCC;gradientColor=none;fontSize=14;align=center;strokeColor=#999999;" vertex="1" parent="1">
          <mxGeometry x="1457" y="390" width="113" height="20" as="geometry" />
        </mxCell>
        <mxCell id="VN1uP1C5PUMfHr19Xt-i-158" value="" style="whiteSpace=wrap;html=1;strokeWidth=2;fillColor=#CCCCCC;gradientColor=none;fontSize=14;align=center;strokeColor=#999999;" vertex="1" parent="1">
          <mxGeometry x="1570" y="410" width="300" height="20" as="geometry" />
        </mxCell>
        <mxCell id="VN1uP1C5PUMfHr19Xt-i-159" value="" style="whiteSpace=wrap;html=1;strokeWidth=2;fillColor=#CCCCCC;gradientColor=none;fontSize=14;align=center;strokeColor=#999999;" vertex="1" parent="1">
          <mxGeometry x="1870" y="430" width="220" height="20" as="geometry" />
        </mxCell>
        <mxCell id="VN1uP1C5PUMfHr19Xt-i-160" value="" style="whiteSpace=wrap;html=1;strokeWidth=2;fillColor=#CCCCCC;gradientColor=none;fontSize=14;align=center;strokeColor=#999999;" vertex="1" parent="1">
          <mxGeometry x="1737" y="450" width="210" height="20" as="geometry" />
        </mxCell>
        <mxCell id="VN1uP1C5PUMfHr19Xt-i-161" value="" style="whiteSpace=wrap;html=1;strokeWidth=2;fillColor=#CCCCCC;gradientColor=none;fontSize=14;align=center;strokeColor=#999999;" vertex="1" parent="1">
          <mxGeometry x="1947" y="470" width="140" height="20" as="geometry" />
        </mxCell>
        <mxCell id="VN1uP1C5PUMfHr19Xt-i-162" value="" style="whiteSpace=wrap;html=1;strokeWidth=2;fillColor=#CCCCCC;gradientColor=none;fontSize=14;align=center;strokeColor=#999999;" vertex="1" parent="1">
          <mxGeometry x="1947" y="490" width="210" height="20" as="geometry" />
        </mxCell>
        <mxCell id="VN1uP1C5PUMfHr19Xt-i-163" value="" style="whiteSpace=wrap;html=1;strokeWidth=2;fillColor=#CCCCCC;gradientColor=none;fontSize=14;align=center;strokeColor=#999999;" vertex="1" parent="1">
          <mxGeometry x="2087" y="510" width="140" height="20" as="geometry" />
        </mxCell>
        <mxCell id="VN1uP1C5PUMfHr19Xt-i-164" value="" style="whiteSpace=wrap;html=1;strokeWidth=2;fillColor=#CCCCCC;gradientColor=none;fontSize=14;align=center;strokeColor=#999999;" vertex="1" parent="1">
          <mxGeometry x="2227" y="530" width="70" height="20" as="geometry" />
        </mxCell>
        <mxCell id="VN1uP1C5PUMfHr19Xt-i-165" value="" style="whiteSpace=wrap;html=1;aspect=fixed;" vertex="1" parent="1">
          <mxGeometry x="550" y="900" width="540" height="540" as="geometry" />
        </mxCell>
        <mxCell id="VN1uP1C5PUMfHr19Xt-i-166" value="Client" style="shape=umlActor;verticalLabelPosition=bottom;verticalAlign=top;html=1;outlineConnect=0;" vertex="1" parent="1">
          <mxGeometry x="450" y="1070" width="30" height="60" as="geometry" />
        </mxCell>
        <mxCell id="VN1uP1C5PUMfHr19Xt-i-169" value="Se servir de l&#39;essence." style="ellipse;whiteSpace=wrap;html=1;" vertex="1" parent="1">
          <mxGeometry x="690" y="1050" width="260" height="100" as="geometry" />
        </mxCell>
        <mxCell id="VN1uP1C5PUMfHr19Xt-i-171" value="" style="endArrow=none;html=1;rounded=0;entryX=0;entryY=0.529;entryDx=0;entryDy=0;entryPerimeter=0;" edge="1" parent="1" source="VN1uP1C5PUMfHr19Xt-i-166" target="VN1uP1C5PUMfHr19Xt-i-169">
          <mxGeometry width="50" height="50" relative="1" as="geometry">
            <mxPoint x="750" y="1370" as="sourcePoint" />
            <mxPoint x="800" y="1320" as="targetPoint" />
          </mxGeometry>
        </mxCell>
        <mxCell id="VN1uP1C5PUMfHr19Xt-i-172" value="Station Service" style="text;html=1;strokeColor=none;fillColor=none;align=center;verticalAlign=middle;whiteSpace=wrap;rounded=0;" vertex="1" parent="1">
          <mxGeometry x="720" y="900" width="190" height="30" as="geometry" />
        </mxCell>
        <mxCell id="VN1uP1C5PUMfHr19Xt-i-173" value="Pompiste" style="shape=umlActor;verticalLabelPosition=bottom;verticalAlign=top;html=1;outlineConnect=0;" vertex="1" parent="1">
          <mxGeometry x="450" y="940" width="30" height="60" as="geometry" />
        </mxCell>
        <mxCell id="VN1uP1C5PUMfHr19Xt-i-182" value="Mécanicien" style="shape=umlActor;verticalLabelPosition=bottom;verticalAlign=top;html=1;outlineConnect=0;" vertex="1" parent="1">
          <mxGeometry x="450" y="1200" width="30" height="60" as="geometry" />
        </mxCell>
        <mxCell id="VN1uP1C5PUMfHr19Xt-i-183" value="Se servir de l&#39;essence." style="ellipse;whiteSpace=wrap;html=1;" vertex="1" parent="1">
          <mxGeometry x="690" y="1180" width="260" height="100" as="geometry" />
        </mxCell>
        <mxCell id="VN1uP1C5PUMfHr19Xt-i-184" value="Chef d&#39;Atelier" style="shape=umlActor;verticalLabelPosition=bottom;verticalAlign=top;html=1;outlineConnect=0;" vertex="1" parent="1">
          <mxGeometry x="450" y="1330" width="30" height="60" as="geometry" />
        </mxCell>
        <mxCell id="VN1uP1C5PUMfHr19Xt-i-185" value="Se servir de l&#39;essence." style="ellipse;whiteSpace=wrap;html=1;" vertex="1" parent="1">
          <mxGeometry x="690" y="1310" width="260" height="100" as="geometry" />
        </mxCell>
      </root>
    </mxGraphModel>
  </diagram>
</mxfile>
